<mxfile host="Electron" modified="2025-03-23T10:46:53.642Z" agent="Mozilla/5.0 (Windows NT 10.0; Win64; x64) AppleWebKit/537.36 (KHTML, like Gecko) draw.io/24.2.5 Chrome/120.0.6099.109 Electron/28.1.0 Safari/537.36" etag="mJPwDaFbUwbtOYYyUzxO" version="24.2.5" type="device" pages="3">
  <diagram id="NwsiOxc8bwwGCf-gUlxk" name="Страница — 1">
    <mxGraphModel dx="1036" dy="614" grid="1" gridSize="10" guides="1" tooltips="1" connect="1" arrows="1" fold="1" page="1" pageScale="1" pageWidth="827" pageHeight="1169" math="0" shadow="0">
      <root>
        <mxCell id="0" />
        <mxCell id="1" parent="0" />
        <mxCell id="uc3" value="Редактирование настроек приложения" style="ellipse;whiteSpace=wrap;html=1;fillColor=#FFFFFF;strokeColor=#000000;" parent="1" vertex="1">
          <mxGeometry x="400" y="620" width="160" height="50" as="geometry" />
        </mxCell>
        <mxCell id="uc4" value="Пауза/Продолжение таймера" style="ellipse;whiteSpace=wrap;html=1;fillColor=#FFFFFF;strokeColor=#000000;" parent="1" vertex="1">
          <mxGeometry x="400" y="300" width="160" height="40" as="geometry" />
        </mxCell>
        <mxCell id="edge4" style="exitX=0.961;exitY=0.33;exitDx=0;exitDy=0;exitPerimeter=0;" parent="1" target="uc4" edge="1">
          <mxGeometry relative="1" as="geometry">
            <mxPoint x="175.31999999999994" y="426.4" as="sourcePoint" />
          </mxGeometry>
        </mxCell>
        <mxCell id="uc5" value="Остановка таймера" style="ellipse;whiteSpace=wrap;html=1;fillColor=#FFFFFF;strokeColor=#000000;" parent="1" vertex="1">
          <mxGeometry x="400" y="350" width="160" height="40" as="geometry" />
        </mxCell>
        <mxCell id="edge5" style="exitX=1;exitY=0.398;exitDx=0;exitDy=0;exitPerimeter=0;" parent="1" target="uc5" edge="1">
          <mxGeometry relative="1" as="geometry">
            <mxPoint x="180" y="431.84000000000003" as="sourcePoint" />
          </mxGeometry>
        </mxCell>
        <mxCell id="uc6" value="Создание таймера" style="ellipse;whiteSpace=wrap;html=1;fillColor=#FFFFFF;strokeColor=#000000;" parent="1" vertex="1">
          <mxGeometry x="400" y="400" width="160" height="40" as="geometry" />
        </mxCell>
        <mxCell id="edge6" style="exitX=1;exitY=0.5;exitDx=0;exitDy=0;" parent="1" target="uc6" edge="1">
          <mxGeometry relative="1" as="geometry">
            <mxPoint x="180" y="440" as="sourcePoint" />
          </mxGeometry>
        </mxCell>
        <mxCell id="uc7" value="Редактирование таймера" style="ellipse;whiteSpace=wrap;html=1;fillColor=#FFFFFF;strokeColor=#000000;" parent="1" vertex="1">
          <mxGeometry x="400" y="460" width="160" height="40" as="geometry" />
        </mxCell>
        <mxCell id="edge7" style="exitX=0.993;exitY=0.588;exitDx=0;exitDy=0;exitPerimeter=0;" parent="1" target="uc7" edge="1">
          <mxGeometry relative="1" as="geometry">
            <mxPoint x="179.15999999999997" y="447.0400000000001" as="sourcePoint" />
          </mxGeometry>
        </mxCell>
        <mxCell id="uc8" value="Удаление таймера" style="ellipse;whiteSpace=wrap;html=1;fillColor=#FFFFFF;strokeColor=#000000;" parent="1" vertex="1">
          <mxGeometry x="400" y="520" width="160" height="40" as="geometry" />
        </mxCell>
        <mxCell id="edge8" style="exitX=0.958;exitY=0.701;exitDx=0;exitDy=0;exitPerimeter=0;" parent="1" target="uc8" edge="1">
          <mxGeometry relative="1" as="geometry">
            <mxPoint x="174.96000000000015" y="456.08000000000004" as="sourcePoint" />
          </mxGeometry>
        </mxCell>
        <mxCell id="uc9" value="Просмотр списка таймеров" style="ellipse;whiteSpace=wrap;html=1;fillColor=#FFFFFF;strokeColor=#000000;" parent="1" vertex="1">
          <mxGeometry x="400" y="570" width="160" height="40" as="geometry" />
        </mxCell>
        <mxCell id="edge9" style="exitX=0.941;exitY=0.769;exitDx=0;exitDy=0;exitPerimeter=0;" parent="1" target="uc9" edge="1">
          <mxGeometry relative="1" as="geometry">
            <mxPoint x="172.92000000000007" y="461.51999999999987" as="sourcePoint" />
          </mxGeometry>
        </mxCell>
        <mxCell id="uc10" value="Запуск таймера" style="ellipse;whiteSpace=wrap;html=1;fillColor=#FFFFFF;strokeColor=#000000;" parent="1" vertex="1">
          <mxGeometry x="400" y="250" width="160" height="40" as="geometry" />
        </mxCell>
        <mxCell id="edge10" style="" parent="1" target="uc10" edge="1">
          <mxGeometry relative="1" as="geometry">
            <mxPoint x="168.9499861974241" y="416.868502942506" as="sourcePoint" />
          </mxGeometry>
        </mxCell>
        <mxCell id="uc12" value="Получение звукового уведомления" style="ellipse;whiteSpace=wrap;html=1;fillColor=#FFFFFF;strokeColor=#000000;" parent="1" vertex="1">
          <mxGeometry x="400" y="190" width="160" height="40" as="geometry" />
        </mxCell>
        <mxCell id="edge12" style="exitX=0.887;exitY=0.166;exitDx=0;exitDy=0;exitPerimeter=0;" parent="1" target="uc12" edge="1">
          <mxGeometry relative="1" as="geometry">
            <mxPoint x="166.44000000000005" y="413.28" as="sourcePoint" />
          </mxGeometry>
        </mxCell>
        <mxCell id="QagyqnC1LckfgayvKWn9-4" value="User" style="shape=umlActor;verticalLabelPosition=bottom;verticalAlign=top;html=1;outlineConnect=0;" parent="1" vertex="1">
          <mxGeometry x="130" y="410" width="30" height="60" as="geometry" />
        </mxCell>
        <mxCell id="QagyqnC1LckfgayvKWn9-5" style="entryX=0;entryY=0.5;entryDx=0;entryDy=0;exitX=0.895;exitY=0.827;exitDx=0;exitDy=0;exitPerimeter=0;" parent="1" target="uc3" edge="1">
          <mxGeometry relative="1" as="geometry">
            <mxPoint x="167.39999999999998" y="466.1600000000001" as="sourcePoint" />
            <mxPoint x="456" y="582" as="targetPoint" />
          </mxGeometry>
        </mxCell>
      </root>
    </mxGraphModel>
  </diagram>
  <diagram id="YE8kzQvxtXKD8Rf_VfgE" name="Страница — 2">
    <mxGraphModel dx="2736" dy="2313" grid="1" gridSize="10" guides="1" tooltips="1" connect="1" arrows="1" fold="1" page="1" pageScale="1" pageWidth="827" pageHeight="1169" math="0" shadow="0">
      <root>
        <mxCell id="0" />
        <mxCell id="1" parent="0" />
        <mxCell id="q6nbXp8VcwyLTmjKK6T_-49" value="" style="edgeStyle=orthogonalEdgeStyle;rounded=0;orthogonalLoop=1;jettySize=auto;html=1;" edge="1" parent="1" source="q6nbXp8VcwyLTmjKK6T_-1" target="q6nbXp8VcwyLTmjKK6T_-47">
          <mxGeometry relative="1" as="geometry" />
        </mxCell>
        <mxCell id="q6nbXp8VcwyLTmjKK6T_-1" value="Выбор таймера" style="rounded=1;whiteSpace=wrap;html=1;" vertex="1" parent="1">
          <mxGeometry x="216.25" y="-10" width="187.5" height="40" as="geometry" />
        </mxCell>
        <mxCell id="q6nbXp8VcwyLTmjKK6T_-15" value="" style="edgeStyle=orthogonalEdgeStyle;rounded=0;orthogonalLoop=1;jettySize=auto;html=1;" edge="1" parent="1" source="q6nbXp8VcwyLTmjKK6T_-2" target="q6nbXp8VcwyLTmjKK6T_-3">
          <mxGeometry relative="1" as="geometry" />
        </mxCell>
        <mxCell id="q6nbXp8VcwyLTmjKK6T_-2" value="Нажатие &#39;Старт&#39;" style="rounded=1;whiteSpace=wrap;html=1;" vertex="1" parent="1">
          <mxGeometry x="215" y="130" width="190" height="40" as="geometry" />
        </mxCell>
        <mxCell id="q6nbXp8VcwyLTmjKK6T_-46" value="" style="edgeStyle=orthogonalEdgeStyle;rounded=0;orthogonalLoop=1;jettySize=auto;html=1;" edge="1" parent="1" source="q6nbXp8VcwyLTmjKK6T_-3" target="q6nbXp8VcwyLTmjKK6T_-5">
          <mxGeometry relative="1" as="geometry" />
        </mxCell>
        <mxCell id="q6nbXp8VcwyLTmjKK6T_-3" value="Запуск фазы" style="rounded=1;whiteSpace=wrap;html=1;" vertex="1" parent="1">
          <mxGeometry x="215" y="200" width="190" height="40" as="geometry" />
        </mxCell>
        <mxCell id="q6nbXp8VcwyLTmjKK6T_-20" value="" style="edgeStyle=orthogonalEdgeStyle;rounded=0;orthogonalLoop=1;jettySize=auto;html=1;" edge="1" parent="1" source="q6nbXp8VcwyLTmjKK6T_-5" target="q6nbXp8VcwyLTmjKK6T_-6">
          <mxGeometry relative="1" as="geometry" />
        </mxCell>
        <mxCell id="q6nbXp8VcwyLTmjKK6T_-23" value="" style="edgeStyle=orthogonalEdgeStyle;rounded=0;orthogonalLoop=1;jettySize=auto;html=1;" edge="1" parent="1" source="q6nbXp8VcwyLTmjKK6T_-5" target="q6nbXp8VcwyLTmjKK6T_-9">
          <mxGeometry relative="1" as="geometry" />
        </mxCell>
        <mxCell id="q6nbXp8VcwyLTmjKK6T_-5" value="Фаза завершена?" style="rhombus;whiteSpace=wrap;html=1;" vertex="1" parent="1">
          <mxGeometry x="240" y="310" width="140" height="60" as="geometry" />
        </mxCell>
        <mxCell id="q6nbXp8VcwyLTmjKK6T_-22" value="" style="edgeStyle=orthogonalEdgeStyle;rounded=0;orthogonalLoop=1;jettySize=auto;html=1;" edge="1" parent="1" source="q6nbXp8VcwyLTmjKK6T_-6" target="q6nbXp8VcwyLTmjKK6T_-7">
          <mxGeometry relative="1" as="geometry" />
        </mxCell>
        <mxCell id="q6nbXp8VcwyLTmjKK6T_-6" value="Проиграть звук" style="rounded=1;whiteSpace=wrap;html=1;" vertex="1" parent="1">
          <mxGeometry y="280" width="140" height="40" as="geometry" />
        </mxCell>
        <mxCell id="q6nbXp8VcwyLTmjKK6T_-43" value="" style="edgeStyle=orthogonalEdgeStyle;rounded=0;orthogonalLoop=1;jettySize=auto;html=1;" edge="1" parent="1" source="q6nbXp8VcwyLTmjKK6T_-7" target="q6nbXp8VcwyLTmjKK6T_-8">
          <mxGeometry relative="1" as="geometry" />
        </mxCell>
        <mxCell id="q6nbXp8VcwyLTmjKK6T_-7" value="Переключить фазу" style="rounded=1;whiteSpace=wrap;html=1;" vertex="1" parent="1">
          <mxGeometry y="370" width="140" height="40" as="geometry" />
        </mxCell>
        <mxCell id="q6nbXp8VcwyLTmjKK6T_-8" value="Таймер завершен?" style="rhombus;whiteSpace=wrap;html=1;" vertex="1" parent="1">
          <mxGeometry x="-230" y="360" width="140" height="60" as="geometry" />
        </mxCell>
        <mxCell id="q6nbXp8VcwyLTmjKK6T_-37" value="" style="edgeStyle=orthogonalEdgeStyle;rounded=0;orthogonalLoop=1;jettySize=auto;html=1;" edge="1" parent="1" source="q6nbXp8VcwyLTmjKK6T_-9" target="q6nbXp8VcwyLTmjKK6T_-33">
          <mxGeometry relative="1" as="geometry" />
        </mxCell>
        <mxCell id="q6nbXp8VcwyLTmjKK6T_-38" value="" style="edgeStyle=orthogonalEdgeStyle;rounded=0;orthogonalLoop=1;jettySize=auto;html=1;entryX=0;entryY=0.75;entryDx=0;entryDy=0;exitX=1;exitY=1;exitDx=0;exitDy=0;" edge="1" parent="1" source="q6nbXp8VcwyLTmjKK6T_-9" target="q6nbXp8VcwyLTmjKK6T_-11">
          <mxGeometry relative="1" as="geometry">
            <Array as="points">
              <mxPoint x="350" y="475" />
              <mxPoint x="350" y="540" />
            </Array>
          </mxGeometry>
        </mxCell>
        <mxCell id="q6nbXp8VcwyLTmjKK6T_-41" value="" style="edgeStyle=orthogonalEdgeStyle;rounded=0;orthogonalLoop=1;jettySize=auto;html=1;" edge="1" parent="1" source="q6nbXp8VcwyLTmjKK6T_-9" target="q6nbXp8VcwyLTmjKK6T_-10">
          <mxGeometry relative="1" as="geometry" />
        </mxCell>
        <mxCell id="q6nbXp8VcwyLTmjKK6T_-9" value="Пользователь взаимодействует?" style="rhombus;whiteSpace=wrap;html=1;" vertex="1" parent="1">
          <mxGeometry x="220" y="430" width="180" height="60" as="geometry" />
        </mxCell>
        <mxCell id="q6nbXp8VcwyLTmjKK6T_-10" value="Пауза" style="rounded=1;whiteSpace=wrap;html=1;" vertex="1" parent="1">
          <mxGeometry x="480" y="440" width="120" height="40" as="geometry" />
        </mxCell>
        <mxCell id="q6nbXp8VcwyLTmjKK6T_-42" style="edgeStyle=orthogonalEdgeStyle;rounded=0;orthogonalLoop=1;jettySize=auto;html=1;exitX=0.5;exitY=1;exitDx=0;exitDy=0;" edge="1" parent="1" source="q6nbXp8VcwyLTmjKK6T_-11">
          <mxGeometry relative="1" as="geometry">
            <mxPoint x="310" y="280" as="targetPoint" />
            <Array as="points">
              <mxPoint x="470" y="570" />
              <mxPoint x="620" y="570" />
              <mxPoint x="620" y="280" />
            </Array>
          </mxGeometry>
        </mxCell>
        <mxCell id="q6nbXp8VcwyLTmjKK6T_-11" value="Продолжить" style="rounded=1;whiteSpace=wrap;html=1;" vertex="1" parent="1">
          <mxGeometry x="410" y="510" width="120" height="40" as="geometry" />
        </mxCell>
        <mxCell id="q6nbXp8VcwyLTmjKK6T_-26" value="" style="edgeStyle=orthogonalEdgeStyle;rounded=0;orthogonalLoop=1;jettySize=auto;html=1;" edge="1" parent="1" source="q6nbXp8VcwyLTmjKK6T_-24" target="q6nbXp8VcwyLTmjKK6T_-1">
          <mxGeometry relative="1" as="geometry" />
        </mxCell>
        <mxCell id="q6nbXp8VcwyLTmjKK6T_-24" value="" style="ellipse;whiteSpace=wrap;html=1;aspect=fixed;" vertex="1" parent="1">
          <mxGeometry x="280" y="-100" width="60" height="60" as="geometry" />
        </mxCell>
        <mxCell id="q6nbXp8VcwyLTmjKK6T_-31" value="" style="ellipse;whiteSpace=wrap;html=1;aspect=fixed;fillColor=#000000;" vertex="1" parent="1">
          <mxGeometry x="60" y="670" width="60" height="60" as="geometry" />
        </mxCell>
        <mxCell id="q6nbXp8VcwyLTmjKK6T_-36" value="" style="edgeStyle=orthogonalEdgeStyle;rounded=0;orthogonalLoop=1;jettySize=auto;html=1;exitX=0.5;exitY=1;exitDx=0;exitDy=0;" edge="1" parent="1" source="q6nbXp8VcwyLTmjKK6T_-33" target="q6nbXp8VcwyLTmjKK6T_-31">
          <mxGeometry relative="1" as="geometry">
            <Array as="points">
              <mxPoint x="90" y="710" />
              <mxPoint x="90" y="710" />
            </Array>
          </mxGeometry>
        </mxCell>
        <mxCell id="q6nbXp8VcwyLTmjKK6T_-33" value="Стоп" style="rounded=1;whiteSpace=wrap;html=1;" vertex="1" parent="1">
          <mxGeometry x="30" y="545" width="120" height="40" as="geometry" />
        </mxCell>
        <mxCell id="q6nbXp8VcwyLTmjKK6T_-40" value="" style="edgeStyle=orthogonalEdgeStyle;rounded=0;orthogonalLoop=1;jettySize=auto;html=1;entryX=1;entryY=0;entryDx=0;entryDy=0;exitX=0.5;exitY=0;exitDx=0;exitDy=0;" edge="1" parent="1" source="q6nbXp8VcwyLTmjKK6T_-10" target="q6nbXp8VcwyLTmjKK6T_-9">
          <mxGeometry relative="1" as="geometry">
            <mxPoint x="590" y="490" as="sourcePoint" />
            <mxPoint x="590" y="575" as="targetPoint" />
            <Array as="points">
              <mxPoint x="580" y="420" />
              <mxPoint x="355" y="420" />
            </Array>
          </mxGeometry>
        </mxCell>
        <mxCell id="q6nbXp8VcwyLTmjKK6T_-44" value="" style="edgeStyle=orthogonalEdgeStyle;rounded=0;orthogonalLoop=1;jettySize=auto;html=1;exitX=0.5;exitY=0;exitDx=0;exitDy=0;entryX=0;entryY=0.5;entryDx=0;entryDy=0;" edge="1" parent="1" source="q6nbXp8VcwyLTmjKK6T_-8" target="q6nbXp8VcwyLTmjKK6T_-3">
          <mxGeometry relative="1" as="geometry">
            <mxPoint x="10" y="400" as="sourcePoint" />
            <mxPoint x="-80" y="400" as="targetPoint" />
            <Array as="points">
              <mxPoint x="-160" y="220" />
            </Array>
          </mxGeometry>
        </mxCell>
        <mxCell id="q6nbXp8VcwyLTmjKK6T_-45" value="" style="edgeStyle=orthogonalEdgeStyle;rounded=0;orthogonalLoop=1;jettySize=auto;html=1;exitX=0.5;exitY=1;exitDx=0;exitDy=0;entryX=0;entryY=0.5;entryDx=0;entryDy=0;" edge="1" parent="1" source="q6nbXp8VcwyLTmjKK6T_-8" target="q6nbXp8VcwyLTmjKK6T_-31">
          <mxGeometry relative="1" as="geometry">
            <mxPoint x="20" y="410" as="sourcePoint" />
            <mxPoint x="-70" y="410" as="targetPoint" />
            <Array as="points">
              <mxPoint x="-160" y="700" />
            </Array>
          </mxGeometry>
        </mxCell>
        <mxCell id="q6nbXp8VcwyLTmjKK6T_-50" value="" style="edgeStyle=orthogonalEdgeStyle;rounded=0;orthogonalLoop=1;jettySize=auto;html=1;" edge="1" parent="1" source="q6nbXp8VcwyLTmjKK6T_-47" target="q6nbXp8VcwyLTmjKK6T_-2">
          <mxGeometry relative="1" as="geometry" />
        </mxCell>
        <mxCell id="q6nbXp8VcwyLTmjKK6T_-47" value="Отображение времени" style="rounded=1;whiteSpace=wrap;html=1;" vertex="1" parent="1">
          <mxGeometry x="215" y="60" width="190" height="40" as="geometry" />
        </mxCell>
        <mxCell id="q6nbXp8VcwyLTmjKK6T_-51" value="Да" style="text;html=1;align=center;verticalAlign=middle;resizable=0;points=[];autosize=1;strokeColor=none;fillColor=none;" vertex="1" parent="1">
          <mxGeometry x="200" y="310" width="40" height="30" as="geometry" />
        </mxCell>
        <mxCell id="q6nbXp8VcwyLTmjKK6T_-52" value="Да" style="text;html=1;align=center;verticalAlign=middle;resizable=0;points=[];autosize=1;strokeColor=none;fillColor=none;" vertex="1" parent="1">
          <mxGeometry x="394" y="430" width="40" height="30" as="geometry" />
        </mxCell>
        <mxCell id="q6nbXp8VcwyLTmjKK6T_-53" value="Да" style="text;html=1;align=center;verticalAlign=middle;resizable=0;points=[];autosize=1;strokeColor=none;fillColor=none;" vertex="1" parent="1">
          <mxGeometry x="190" y="430" width="40" height="30" as="geometry" />
        </mxCell>
        <mxCell id="q6nbXp8VcwyLTmjKK6T_-54" value="Да" style="text;html=1;align=center;verticalAlign=middle;resizable=0;points=[];autosize=1;strokeColor=none;fillColor=none;" vertex="1" parent="1">
          <mxGeometry x="350" y="480" width="40" height="30" as="geometry" />
        </mxCell>
        <mxCell id="q6nbXp8VcwyLTmjKK6T_-55" value="Да" style="text;html=1;align=center;verticalAlign=middle;resizable=0;points=[];autosize=1;strokeColor=none;fillColor=none;" vertex="1" parent="1">
          <mxGeometry x="-160" y="420" width="40" height="30" as="geometry" />
        </mxCell>
        <mxCell id="q6nbXp8VcwyLTmjKK6T_-56" value="Нет" style="text;html=1;align=center;verticalAlign=middle;resizable=0;points=[];autosize=1;strokeColor=none;fillColor=none;" vertex="1" parent="1">
          <mxGeometry x="-160" y="330" width="40" height="30" as="geometry" />
        </mxCell>
        <mxCell id="q6nbXp8VcwyLTmjKK6T_-57" value="&lt;span style=&quot;color: rgb(0, 0, 0); font-family: Helvetica; font-size: 12px; font-style: normal; font-variant-ligatures: normal; font-variant-caps: normal; font-weight: 400; letter-spacing: normal; orphans: 2; text-align: center; text-indent: 0px; text-transform: none; widows: 2; word-spacing: 0px; -webkit-text-stroke-width: 0px; white-space: nowrap; background-color: rgb(251, 251, 251); text-decoration-thickness: initial; text-decoration-style: initial; text-decoration-color: initial; display: inline !important; float: none;&quot;&gt;Нет&lt;/span&gt;" style="text;whiteSpace=wrap;html=1;" vertex="1" parent="1">
          <mxGeometry x="280" y="370" width="30" height="30" as="geometry" />
        </mxCell>
        <mxCell id="q6nbXp8VcwyLTmjKK6T_-59" value="" style="edgeStyle=orthogonalEdgeStyle;rounded=0;orthogonalLoop=1;jettySize=auto;html=1;exitX=0.5;exitY=1;exitDx=0;exitDy=0;" edge="1" parent="1" source="q6nbXp8VcwyLTmjKK6T_-9">
          <mxGeometry relative="1" as="geometry">
            <mxPoint x="346.9200000000001" y="485.3800000000001" as="sourcePoint" />
            <mxPoint x="310" y="264" as="targetPoint" />
            <Array as="points">
              <mxPoint x="310" y="584" />
              <mxPoint x="709" y="584" />
              <mxPoint x="709" y="264" />
            </Array>
          </mxGeometry>
        </mxCell>
        <mxCell id="q6nbXp8VcwyLTmjKK6T_-60" value="&lt;span style=&quot;color: rgb(0, 0, 0); font-family: Helvetica; font-size: 12px; font-style: normal; font-variant-ligatures: normal; font-variant-caps: normal; font-weight: 400; letter-spacing: normal; orphans: 2; text-align: center; text-indent: 0px; text-transform: none; widows: 2; word-spacing: 0px; -webkit-text-stroke-width: 0px; white-space: nowrap; background-color: rgb(251, 251, 251); text-decoration-thickness: initial; text-decoration-style: initial; text-decoration-color: initial; display: inline !important; float: none;&quot;&gt;Нет&lt;/span&gt;" style="text;whiteSpace=wrap;html=1;" vertex="1" parent="1">
          <mxGeometry x="280" y="500" width="30" height="30" as="geometry" />
        </mxCell>
      </root>
    </mxGraphModel>
  </diagram>
  <diagram id="GrD-VR5JUvBg3h_LCVYx" name="Страница — 3">
    <mxGraphModel dx="1978" dy="4189" grid="1" gridSize="10" guides="1" tooltips="1" connect="1" arrows="1" fold="1" page="1" pageScale="1" pageWidth="827" pageHeight="1169" math="0" shadow="0">
      <root>
        <mxCell id="0" />
        <mxCell id="1" parent="0" />
        <mxCell id="Ji6EK6EwQxz0IhGoD4ME-1" value="&lt;p style=&quot;margin:0px;margin-top:4px;text-align:center;&quot;&gt;&lt;i&gt;Гость&lt;/i&gt;&lt;/p&gt;&lt;hr size=&quot;1&quot;&gt;&lt;p style=&quot;margin:0px;margin-left:4px;&quot;&gt;+ &lt;font&gt;ID&lt;/font&gt;&lt;/p&gt;&lt;p style=&quot;margin:0px;margin-left:4px;&quot;&gt;+ ID.Пользователя&lt;/p&gt;&lt;p style=&quot;margin:0px;margin-left:4px;&quot;&gt;+ Номер паспорта&lt;/p&gt;&lt;p style=&quot;margin:0px;margin-left:4px;&quot;&gt;+ Место проживания&lt;/p&gt;&lt;hr size=&quot;1&quot;&gt;&lt;p style=&quot;margin:0px;margin-left:4px;&quot;&gt;&lt;/p&gt;&amp;nbsp;+ Создать_Гостя()&lt;br&gt;&amp;nbsp;+&amp;nbsp;Редактировать_Гостя()&lt;br&gt;&amp;nbsp;+ Удалить_Гостя()" style="verticalAlign=top;align=left;overflow=fill;fontSize=12;fontFamily=Helvetica;html=1;whiteSpace=wrap;fontColor=#000000;" vertex="1" parent="1">
          <mxGeometry x="84.25" y="-2288" width="170" height="182" as="geometry" />
        </mxCell>
        <mxCell id="Ji6EK6EwQxz0IhGoD4ME-2" value="&lt;p style=&quot;margin:0px;margin-top:4px;text-align:center;&quot;&gt;&lt;i&gt;Сотрудник(Пользователь)&lt;/i&gt;&lt;/p&gt;&lt;hr size=&quot;1&quot;&gt;&lt;p style=&quot;border-color: var(--border-color); margin: 0px 0px 0px 4px;&quot;&gt;+&amp;nbsp;&lt;font style=&quot;border-color: var(--border-color);&quot;&gt;ID&lt;/font&gt;&lt;/p&gt;&lt;p style=&quot;border-color: var(--border-color); margin: 0px 0px 0px 4px;&quot;&gt;+ Имя&lt;/p&gt;&lt;p style=&quot;border-color: var(--border-color); margin: 0px 0px 0px 4px;&quot;&gt;+ Фамилия&lt;/p&gt;&lt;p style=&quot;border-color: var(--border-color); margin: 0px 0px 0px 4px;&quot;&gt;+ Логин&lt;/p&gt;&lt;p style=&quot;border-color: var(--border-color); margin: 0px 0px 0px 4px;&quot;&gt;+ Пароль&lt;/p&gt;&lt;p style=&quot;border-color: var(--border-color); margin: 0px 0px 0px 4px;&quot;&gt;+ Роль&lt;/p&gt;&lt;p style=&quot;border-color: var(--border-color); margin: 0px 0px 0px 4px;&quot;&gt;+ Телефон&lt;br style=&quot;border-color: var(--border-color);&quot;&gt;+ Адрес электронной почты&lt;/p&gt;&lt;hr size=&quot;1&quot;&gt;&lt;p style=&quot;margin:0px;margin-left:4px;&quot;&gt;&lt;/p&gt;&amp;nbsp;+ Создать_&lt;i style=&quot;border-color: var(--border-color); text-align: center;&quot;&gt;Сотрудника&lt;/i&gt;()&lt;br&gt;&amp;nbsp;+&amp;nbsp;Редактировать_&lt;i style=&quot;border-color: var(--border-color); text-align: center;&quot;&gt;Сотрудника&lt;/i&gt;()&lt;br&gt;&amp;nbsp;+ Удалить_&lt;i style=&quot;border-color: var(--border-color); text-align: center;&quot;&gt;Сотрудника&lt;/i&gt;()" style="verticalAlign=top;align=left;overflow=fill;fontSize=12;fontFamily=Helvetica;html=1;whiteSpace=wrap;" vertex="1" parent="1">
          <mxGeometry x="76.25" y="-1974.6399999999999" width="188" height="216.76" as="geometry" />
        </mxCell>
        <mxCell id="Ji6EK6EwQxz0IhGoD4ME-3" value="&lt;p style=&quot;margin:0px;margin-top:4px;text-align:center;&quot;&gt;&lt;i&gt;Уведомление&lt;/i&gt;&lt;/p&gt;&lt;hr size=&quot;1&quot;&gt;&lt;p style=&quot;margin:0px;margin-left:4px;&quot;&gt;+ ID&lt;/p&gt;&lt;p style=&quot;margin:0px;margin-left:4px;&quot;&gt;+ ID.Заказ&lt;/p&gt;&lt;p style=&quot;margin:0px;margin-left:4px;&quot;&gt;+ Дата&lt;/p&gt;&lt;p style=&quot;margin:0px;margin-left:4px;&quot;&gt;+ Текст&lt;/p&gt;&lt;hr size=&quot;1&quot;&gt;&lt;p style=&quot;margin:0px;margin-left:4px;&quot;&gt;&lt;/p&gt;&amp;nbsp;+ Создать_Уведомление()&lt;br&gt;&amp;nbsp;+ Редактировать_Уведомление()&lt;br&gt;&amp;nbsp;+ Удалить_Уведомление()" style="verticalAlign=top;align=left;overflow=fill;fontSize=12;fontFamily=Helvetica;html=1;whiteSpace=wrap;" vertex="1" parent="1">
          <mxGeometry x="691" y="-1948.52" width="191" height="164.52" as="geometry" />
        </mxCell>
        <mxCell id="Ji6EK6EwQxz0IhGoD4ME-4" value="&lt;p style=&quot;margin:0px;margin-top:4px;text-align:center;&quot;&gt;&lt;i&gt;Заказ&lt;/i&gt;&lt;/p&gt;&lt;hr size=&quot;1&quot;&gt;&lt;p style=&quot;margin:0px;margin-left:4px;&quot;&gt;+ ID&amp;nbsp;&lt;/p&gt;&lt;p style=&quot;margin:0px;margin-left:4px;&quot;&gt;+ Дата заказа&lt;/p&gt;&lt;p style=&quot;margin:0px;margin-left:4px;&quot;&gt;+ ID.Брони&lt;/p&gt;&lt;p style=&quot;margin:0px;margin-left:4px;&quot;&gt;+ Статус&lt;/p&gt;&lt;p style=&quot;margin:0px;margin-left:4px;&quot;&gt;+ ID.Уведомление&lt;/p&gt;&lt;p style=&quot;margin:0px;margin-left:4px;&quot;&gt;+ ID.Сотрудника&lt;/p&gt;&lt;p style=&quot;margin:0px;margin-left:4px;&quot;&gt;+ Стоимость заказа&lt;/p&gt;&lt;hr size=&quot;1&quot;&gt;&lt;p style=&quot;margin:0px;margin-left:4px;&quot;&gt;&lt;/p&gt;&amp;nbsp;+ Создать_Заказ()&lt;br&gt;&amp;nbsp;+ Редактировать_Заказ()&lt;br&gt;&amp;nbsp;+ Изменить_Статус_Заказа()&lt;br&gt;&amp;nbsp;+ Удалить_Заказ()" style="verticalAlign=top;align=left;overflow=fill;fontSize=12;fontFamily=Helvetica;html=1;whiteSpace=wrap;" vertex="1" parent="1">
          <mxGeometry x="401" y="-1976.76" width="170" height="221" as="geometry" />
        </mxCell>
        <mxCell id="Ji6EK6EwQxz0IhGoD4ME-5" value="" style="endArrow=none;endFill=0;endSize=24;html=1;rounded=0;" edge="1" parent="1" source="Ji6EK6EwQxz0IhGoD4ME-2" target="Ji6EK6EwQxz0IhGoD4ME-4">
          <mxGeometry width="160" relative="1" as="geometry">
            <mxPoint x="-764.5" y="-2230.26" as="sourcePoint" />
            <mxPoint x="-419" y="-2325.76" as="targetPoint" />
          </mxGeometry>
        </mxCell>
        <mxCell id="Ji6EK6EwQxz0IhGoD4ME-6" value="" style="endArrow=diamondThin;endFill=1;endSize=24;html=1;rounded=0;" edge="1" parent="1" source="Ji6EK6EwQxz0IhGoD4ME-3" target="Ji6EK6EwQxz0IhGoD4ME-4">
          <mxGeometry width="160" relative="1" as="geometry">
            <mxPoint x="993.5" y="-1816.89" as="sourcePoint" />
            <mxPoint x="382" y="-1730.39" as="targetPoint" />
          </mxGeometry>
        </mxCell>
        <mxCell id="Ji6EK6EwQxz0IhGoD4ME-7" value="&lt;p style=&quot;margin:0px;margin-top:4px;text-align:center;&quot;&gt;&lt;i&gt;Отзыв&lt;/i&gt;&lt;/p&gt;&lt;hr size=&quot;1&quot;&gt;&lt;p style=&quot;margin:0px;margin-left:4px;&quot;&gt;+ ID&lt;/p&gt;&lt;p style=&quot;margin:0px;margin-left:4px;&quot;&gt;+ ID.Гостя&lt;/p&gt;&lt;p style=&quot;margin:0px;margin-left:4px;&quot;&gt;+ Дата&lt;/p&gt;&lt;p style=&quot;margin:0px;margin-left:4px;&quot;&gt;+ Время&lt;/p&gt;&lt;p style=&quot;margin:0px;margin-left:4px;&quot;&gt;+ Комментарий(Текст)&lt;/p&gt;&lt;p style=&quot;margin:0px;margin-left:4px;&quot;&gt;+ Оценка&lt;/p&gt;&lt;hr size=&quot;1&quot;&gt;&lt;p style=&quot;margin:0px;margin-left:4px;&quot;&gt;&lt;/p&gt;&amp;nbsp;+ Создать_Отзыв()&lt;br style=&quot;border-color: var(--border-color);&quot;&gt;&amp;nbsp;+ Удалить_Отзыв()" style="verticalAlign=top;align=left;overflow=fill;fontSize=12;fontFamily=Helvetica;html=1;whiteSpace=wrap;" vertex="1" parent="1">
          <mxGeometry x="-212" y="-2282" width="170" height="170" as="geometry" />
        </mxCell>
        <mxCell id="Ji6EK6EwQxz0IhGoD4ME-8" value="&lt;p style=&quot;margin:0px;margin-top:4px;text-align:center;&quot;&gt;&lt;i&gt;Номер&lt;/i&gt;&lt;/p&gt;&lt;hr size=&quot;1&quot;&gt;&lt;p style=&quot;margin:0px;margin-left:4px;&quot;&gt;+ Номер комнаты&lt;/p&gt;&lt;p style=&quot;margin:0px;margin-left:4px;&quot;&gt;&lt;span style=&quot;background-color: initial;&quot;&gt;+ Тип номера&lt;/span&gt;&lt;br&gt;&lt;/p&gt;&lt;p style=&quot;margin:0px;margin-left:4px;&quot;&gt;+ Стоимость за ночь&lt;/p&gt;&lt;p style=&quot;margin:0px;margin-left:4px;&quot;&gt;+ Статус&lt;/p&gt;&lt;hr size=&quot;1&quot;&gt;&lt;p style=&quot;margin:0px;margin-left:4px;&quot;&gt;&lt;/p&gt;&amp;nbsp;+ Создать_&lt;span style=&quot;border-color: var(--border-color); text-align: center;&quot;&gt;Номер&lt;/span&gt;()&lt;br style=&quot;border-color: var(--border-color);&quot;&gt;&amp;nbsp;+ Редактировать_Номер()&lt;br style=&quot;border-color: var(--border-color);&quot;&gt;&amp;nbsp;+ Удалить_Номер()&amp;nbsp;&lt;br&gt;&amp;nbsp;+ Изменить_Статус_Номера()" style="verticalAlign=top;align=left;overflow=fill;fontSize=12;fontFamily=Helvetica;html=1;whiteSpace=wrap;" vertex="1" parent="1">
          <mxGeometry x="682" y="-2282" width="180" height="170" as="geometry" />
        </mxCell>
        <mxCell id="Ji6EK6EwQxz0IhGoD4ME-9" value="&lt;p style=&quot;margin:0px;margin-top:4px;text-align:center;&quot;&gt;&lt;i&gt;Бронь&lt;/i&gt;&lt;/p&gt;&lt;hr size=&quot;1&quot;&gt;&lt;p style=&quot;margin:0px;margin-left:4px;&quot;&gt;+ &lt;font&gt;ID&lt;/font&gt;&lt;/p&gt;&lt;p style=&quot;margin:0px;margin-left:4px;&quot;&gt;&lt;span style=&quot;background-color: initial;&quot;&gt;+ Дата бронирования&lt;/span&gt;&lt;br&gt;&lt;/p&gt;&lt;p style=&quot;margin:0px;margin-left:4px;&quot;&gt;+ Дата заселения&amp;nbsp;&lt;/p&gt;&lt;p style=&quot;margin:0px;margin-left:4px;&quot;&gt;+ Дата выселения&lt;/p&gt;&lt;p style=&quot;margin:0px;margin-left:4px;&quot;&gt;+ Статус бронирования&lt;/p&gt;&lt;p style=&quot;margin:0px;margin-left:4px;&quot;&gt;+ Номер комнаты&lt;/p&gt;&lt;p style=&quot;margin:0px;margin-left:4px;&quot;&gt;+ ID.Гостя&lt;/p&gt;&lt;p style=&quot;margin:0px;margin-left:4px;&quot;&gt;+ Стоимость&lt;/p&gt;&lt;hr size=&quot;1&quot;&gt;&lt;p style=&quot;margin:0px;margin-left:4px;&quot;&gt;&lt;/p&gt;&amp;nbsp;+ Создать_&lt;i style=&quot;border-color: var(--border-color); text-align: center;&quot;&gt;Бронь&lt;/i&gt;()&lt;br&gt;&amp;nbsp;+ Редактировать_Бронь()&lt;br&gt;&amp;nbsp;+ Удалить_Бронь()" style="verticalAlign=top;align=left;overflow=fill;fontSize=12;fontFamily=Helvetica;html=1;whiteSpace=wrap;fontColor=#000000;" vertex="1" parent="1">
          <mxGeometry x="398" y="-2302" width="170" height="210" as="geometry" />
        </mxCell>
        <mxCell id="Ji6EK6EwQxz0IhGoD4ME-10" value="" style="rounded=0;orthogonalLoop=1;jettySize=auto;html=1;endArrow=none;endFill=0;" edge="1" parent="1" source="Ji6EK6EwQxz0IhGoD4ME-9" target="Ji6EK6EwQxz0IhGoD4ME-1">
          <mxGeometry relative="1" as="geometry">
            <mxPoint x="205" y="-1969.76" as="targetPoint" />
            <mxPoint x="206" y="-2053.76" as="sourcePoint" />
          </mxGeometry>
        </mxCell>
        <mxCell id="Ji6EK6EwQxz0IhGoD4ME-11" value="" style="rounded=0;orthogonalLoop=1;jettySize=auto;html=1;endArrow=none;endFill=0;" edge="1" parent="1" source="Ji6EK6EwQxz0IhGoD4ME-7" target="Ji6EK6EwQxz0IhGoD4ME-1">
          <mxGeometry relative="1" as="geometry">
            <mxPoint x="-113" y="-1995.8799999999999" as="targetPoint" />
            <mxPoint x="-92" y="-2118.6400000000003" as="sourcePoint" />
          </mxGeometry>
        </mxCell>
        <mxCell id="Ji6EK6EwQxz0IhGoD4ME-12" value="" style="rounded=0;orthogonalLoop=1;jettySize=auto;html=1;endArrow=none;endFill=0;" edge="1" parent="1" source="Ji6EK6EwQxz0IhGoD4ME-8" target="Ji6EK6EwQxz0IhGoD4ME-9">
          <mxGeometry relative="1" as="geometry">
            <mxPoint x="225" y="-1949.76" as="targetPoint" />
            <mxPoint x="226" y="-2033.76" as="sourcePoint" />
          </mxGeometry>
        </mxCell>
        <mxCell id="Ji6EK6EwQxz0IhGoD4ME-13" value="&lt;font color=&quot;#000000&quot;&gt;1&lt;/font&gt;" style="text;html=1;strokeColor=none;fillColor=none;align=center;verticalAlign=middle;whiteSpace=wrap;rounded=0;fontSize=14;fontColor=#FF0000;" vertex="1" parent="1">
          <mxGeometry x="65" y="-2217.76" width="20" height="20" as="geometry" />
        </mxCell>
        <mxCell id="Ji6EK6EwQxz0IhGoD4ME-14" value="&lt;font color=&quot;#000000&quot;&gt;*&lt;/font&gt;" style="text;html=1;strokeColor=none;fillColor=none;align=center;verticalAlign=middle;whiteSpace=wrap;rounded=0;fontSize=14;fontColor=#FF0000;" vertex="1" parent="1">
          <mxGeometry x="-28.5" y="-2216.76" width="20" height="20" as="geometry" />
        </mxCell>
        <mxCell id="Ji6EK6EwQxz0IhGoD4ME-15" value="&lt;font color=&quot;#000000&quot;&gt;1&lt;/font&gt;" style="text;html=1;strokeColor=none;fillColor=none;align=center;verticalAlign=middle;whiteSpace=wrap;rounded=0;fontSize=14;fontColor=#FF0000;" vertex="1" parent="1">
          <mxGeometry x="255" y="-2216.76" width="20" height="20" as="geometry" />
        </mxCell>
        <mxCell id="Ji6EK6EwQxz0IhGoD4ME-16" value="&lt;font color=&quot;#000000&quot;&gt;*&lt;/font&gt;" style="text;html=1;strokeColor=none;fillColor=none;align=center;verticalAlign=middle;whiteSpace=wrap;rounded=0;fontSize=14;fontColor=#FF0000;" vertex="1" parent="1">
          <mxGeometry x="569" y="-2218.76" width="20" height="20" as="geometry" />
        </mxCell>
        <mxCell id="Ji6EK6EwQxz0IhGoD4ME-17" value="&lt;font color=&quot;#000000&quot;&gt;1&lt;/font&gt;" style="text;html=1;strokeColor=none;fillColor=none;align=center;verticalAlign=middle;whiteSpace=wrap;rounded=0;fontSize=14;fontColor=#FF0000;" vertex="1" parent="1">
          <mxGeometry x="659" y="-2216.76" width="20" height="20" as="geometry" />
        </mxCell>
        <mxCell id="Ji6EK6EwQxz0IhGoD4ME-18" value="&lt;font color=&quot;#000000&quot;&gt;*&lt;/font&gt;" style="text;html=1;strokeColor=none;fillColor=none;align=center;verticalAlign=middle;whiteSpace=wrap;rounded=0;fontSize=14;fontColor=#FF0000;" vertex="1" parent="1">
          <mxGeometry x="377" y="-2216.76" width="20" height="20" as="geometry" />
        </mxCell>
        <mxCell id="Ji6EK6EwQxz0IhGoD4ME-19" value="&lt;font color=&quot;#000000&quot;&gt;*&lt;/font&gt;" style="text;html=1;strokeColor=none;fillColor=none;align=center;verticalAlign=middle;whiteSpace=wrap;rounded=0;fontSize=14;fontColor=#FF0000;" vertex="1" parent="1">
          <mxGeometry x="487" y="-1663.76" width="20" height="20" as="geometry" />
        </mxCell>
        <mxCell id="Ji6EK6EwQxz0IhGoD4ME-20" value="&lt;font color=&quot;#000000&quot;&gt;*&lt;/font&gt;" style="text;html=1;strokeColor=none;fillColor=none;align=center;verticalAlign=middle;whiteSpace=wrap;rounded=0;fontSize=14;fontColor=#FF0000;" vertex="1" parent="1">
          <mxGeometry x="671" y="-1886.76" width="20" height="20" as="geometry" />
        </mxCell>
        <mxCell id="Ji6EK6EwQxz0IhGoD4ME-21" value="&lt;font color=&quot;#000000&quot;&gt;1&lt;/font&gt;" style="text;html=1;strokeColor=none;fillColor=none;align=center;verticalAlign=middle;whiteSpace=wrap;rounded=0;fontSize=14;fontColor=#FF0000;" vertex="1" parent="1">
          <mxGeometry x="573" y="-1894.76" width="20" height="20" as="geometry" />
        </mxCell>
        <mxCell id="Ji6EK6EwQxz0IhGoD4ME-22" value="&lt;p style=&quot;margin:0px;margin-top:4px;text-align:center;&quot;&gt;&lt;i&gt;Услуга в заказе&lt;/i&gt;&lt;/p&gt;&lt;hr size=&quot;1&quot;&gt;&lt;p style=&quot;margin:0px;margin-left:4px;&quot;&gt;+ ID.Услуги&lt;/p&gt;&lt;p style=&quot;margin:0px;margin-left:4px;&quot;&gt;+ ID.Заказа&lt;/p&gt;&lt;p style=&quot;margin:0px;margin-left:4px;&quot;&gt;+ ID.Сотрудника&lt;/p&gt;&lt;p style=&quot;margin:0px;margin-left:4px;&quot;&gt;+ Количество&lt;/p&gt;&lt;hr size=&quot;1&quot;&gt;&lt;p style=&quot;margin:0px;margin-left:4px;&quot;&gt;&lt;/p&gt;&amp;nbsp;+ Добавить_Услугу_в_Заказ()&lt;br style=&quot;border-color: var(--border-color);&quot;&gt;&amp;nbsp;+ Удалить_Услугу_из_Заказа()" style="verticalAlign=top;align=left;overflow=fill;fontSize=12;fontFamily=Helvetica;html=1;whiteSpace=wrap;" vertex="1" parent="1">
          <mxGeometry x="391" y="-1640.39" width="190" height="140.39" as="geometry" />
        </mxCell>
        <mxCell id="Ji6EK6EwQxz0IhGoD4ME-23" value="" style="endArrow=diamondThin;endFill=1;endSize=24;html=1;rounded=0;" edge="1" parent="1" source="Ji6EK6EwQxz0IhGoD4ME-22" target="Ji6EK6EwQxz0IhGoD4ME-4">
          <mxGeometry width="160" relative="1" as="geometry">
            <mxPoint x="271" y="-1850.76" as="sourcePoint" />
            <mxPoint x="402" y="-1850.76" as="targetPoint" />
          </mxGeometry>
        </mxCell>
        <mxCell id="Ji6EK6EwQxz0IhGoD4ME-24" value="" style="endArrow=diamondThin;endFill=1;endSize=24;html=1;rounded=0;" edge="1" parent="1" source="Ji6EK6EwQxz0IhGoD4ME-22" target="Ji6EK6EwQxz0IhGoD4ME-27">
          <mxGeometry width="160" relative="1" as="geometry">
            <mxPoint x="-400" y="-2036.2633535528596" as="sourcePoint" />
            <mxPoint x="254.75" y="-1570.1986503551693" as="targetPoint" />
          </mxGeometry>
        </mxCell>
        <mxCell id="Ji6EK6EwQxz0IhGoD4ME-25" value="&lt;font color=&quot;#000000&quot;&gt;1&lt;/font&gt;" style="text;html=1;strokeColor=none;fillColor=none;align=center;verticalAlign=middle;whiteSpace=wrap;rounded=0;fontSize=14;fontColor=#FF0000;" vertex="1" parent="1">
          <mxGeometry x="496" y="-1754.76" width="20" height="20" as="geometry" />
        </mxCell>
        <mxCell id="Ji6EK6EwQxz0IhGoD4ME-26" value="&lt;font color=&quot;#000000&quot;&gt;*&lt;/font&gt;" style="text;html=1;strokeColor=none;fillColor=none;align=center;verticalAlign=middle;whiteSpace=wrap;rounded=0;fontSize=14;fontColor=#FF0000;" vertex="1" parent="1">
          <mxGeometry x="581" y="-1594" width="20" height="20" as="geometry" />
        </mxCell>
        <mxCell id="Ji6EK6EwQxz0IhGoD4ME-27" value="&lt;p style=&quot;margin:0px;margin-top:4px;text-align:center;&quot;&gt;&lt;i&gt;Услуга&lt;/i&gt;&lt;/p&gt;&lt;hr size=&quot;1&quot;&gt;&lt;p style=&quot;margin:0px;margin-left:4px;&quot;&gt;+ &lt;font&gt;ID&lt;/font&gt;&lt;/p&gt;&lt;p style=&quot;margin:0px;margin-left:4px;&quot;&gt;+ Название&lt;/p&gt;&lt;p style=&quot;margin:0px;margin-left:4px;&quot;&gt;+ Стоимость&lt;br&gt;&lt;/p&gt;&lt;hr size=&quot;1&quot;&gt;&lt;p style=&quot;margin:0px;margin-left:4px;&quot;&gt;&lt;/p&gt;&amp;nbsp;&lt;font&gt;+ Создать_Услугу()&lt;br&gt;&amp;nbsp;+ Редактировать_Услугу()&lt;br style=&quot;border-color: var(--border-color);&quot;&gt;&amp;nbsp;+&amp;nbsp;Удалить_Услугу()&lt;br&gt;&lt;/font&gt;" style="verticalAlign=top;align=left;overflow=fill;fontSize=12;fontFamily=Helvetica;html=1;whiteSpace=wrap;fontColor=#000000;" vertex="1" parent="1">
          <mxGeometry x="749" y="-1636.76" width="191" height="137.26" as="geometry" />
        </mxCell>
        <mxCell id="Ji6EK6EwQxz0IhGoD4ME-28" value="&lt;font color=&quot;#000000&quot;&gt;*&lt;/font&gt;" style="text;html=1;strokeColor=none;fillColor=none;align=center;verticalAlign=middle;whiteSpace=wrap;rounded=0;fontSize=14;fontColor=#FF0000;" vertex="1" parent="1">
          <mxGeometry x="372" y="-1885.76" width="20" height="20" as="geometry" />
        </mxCell>
        <mxCell id="Ji6EK6EwQxz0IhGoD4ME-29" value="&lt;font color=&quot;#000000&quot;&gt;1&lt;/font&gt;" style="text;html=1;strokeColor=none;fillColor=none;align=center;verticalAlign=middle;whiteSpace=wrap;rounded=0;fontSize=14;fontColor=#FF0000;" vertex="1" parent="1">
          <mxGeometry x="456" y="-2091.0000000000005" width="20" height="20" as="geometry" />
        </mxCell>
        <mxCell id="Ji6EK6EwQxz0IhGoD4ME-30" value="&lt;font color=&quot;#000000&quot;&gt;*&lt;/font&gt;" style="text;html=1;strokeColor=none;fillColor=none;align=center;verticalAlign=middle;whiteSpace=wrap;rounded=0;fontSize=14;fontColor=#FF0000;" vertex="1" parent="1">
          <mxGeometry x="456" y="-2000" width="20" height="20" as="geometry" />
        </mxCell>
        <mxCell id="Ji6EK6EwQxz0IhGoD4ME-31" value="&lt;font color=&quot;#000000&quot;&gt;1&lt;/font&gt;" style="text;html=1;strokeColor=none;fillColor=none;align=center;verticalAlign=middle;whiteSpace=wrap;rounded=0;fontSize=14;fontColor=#FF0000;" vertex="1" parent="1">
          <mxGeometry x="728" y="-1595.76" width="20" height="20" as="geometry" />
        </mxCell>
        <mxCell id="Ji6EK6EwQxz0IhGoD4ME-32" value="" style="rounded=0;orthogonalLoop=1;jettySize=auto;html=1;endArrow=none;endFill=0;" edge="1" parent="1" source="Ji6EK6EwQxz0IhGoD4ME-9" target="Ji6EK6EwQxz0IhGoD4ME-4">
          <mxGeometry relative="1" as="geometry">
            <mxPoint x="631" y="-1880" as="targetPoint" />
            <mxPoint x="760" y="-2089" as="sourcePoint" />
          </mxGeometry>
        </mxCell>
        <mxCell id="Ji6EK6EwQxz0IhGoD4ME-33" value="" style="endArrow=none;endFill=0;endSize=24;html=1;rounded=0;edgeStyle=orthogonalEdgeStyle;" edge="1" parent="1" source="Ji6EK6EwQxz0IhGoD4ME-2" target="Ji6EK6EwQxz0IhGoD4ME-22">
          <mxGeometry width="160" relative="1" as="geometry">
            <mxPoint x="264" y="-1856" as="sourcePoint" />
            <mxPoint x="351" y="-1680" as="targetPoint" />
            <Array as="points">
              <mxPoint x="170" y="-1570" />
            </Array>
          </mxGeometry>
        </mxCell>
        <mxCell id="Ji6EK6EwQxz0IhGoD4ME-34" value="&lt;font color=&quot;#000000&quot;&gt;1&lt;/font&gt;" style="text;html=1;strokeColor=none;fillColor=none;align=center;verticalAlign=middle;whiteSpace=wrap;rounded=0;fontSize=14;fontColor=#FF0000;" vertex="1" parent="1">
          <mxGeometry x="171" y="-1755.76" width="20" height="20" as="geometry" />
        </mxCell>
        <mxCell id="Ji6EK6EwQxz0IhGoD4ME-35" value="&lt;font color=&quot;#000000&quot;&gt;*&lt;/font&gt;" style="text;html=1;strokeColor=none;fillColor=none;align=center;verticalAlign=middle;whiteSpace=wrap;rounded=0;fontSize=14;fontColor=#FF0000;" vertex="1" parent="1">
          <mxGeometry x="369" y="-1589.3899999999999" width="20" height="20" as="geometry" />
        </mxCell>
        <mxCell id="Ji6EK6EwQxz0IhGoD4ME-36" value="&lt;p style=&quot;margin:0px;margin-top:4px;text-align:center;&quot;&gt;&lt;i&gt;Роль&lt;/i&gt;&lt;/p&gt;&lt;hr size=&quot;1&quot;&gt;&lt;p style=&quot;border-color: var(--border-color); margin: 0px 0px 0px 4px;&quot;&gt;+&amp;nbsp;&lt;font style=&quot;border-color: var(--border-color);&quot;&gt;ID&lt;/font&gt;&lt;/p&gt;&lt;p style=&quot;border-color: var(--border-color); margin: 0px 0px 0px 4px;&quot;&gt;+ Наименование(Администратор,&lt;/p&gt;&lt;p style=&quot;border-color: var(--border-color); margin: 0px 0px 0px 4px;&quot;&gt;Сотрудник, Пользователь)&lt;/p&gt;&lt;hr size=&quot;1&quot;&gt;&lt;p style=&quot;margin:0px;margin-left:4px;&quot;&gt;&lt;/p&gt;&amp;nbsp;+ Создать_&lt;i style=&quot;border-color: var(--border-color); text-align: center;&quot;&gt;Роль&lt;/i&gt;()&lt;br&gt;&amp;nbsp;+&amp;nbsp;Редактировать_Роль()&lt;br&gt;&amp;nbsp;+ Удалить_Роль()" style="verticalAlign=top;align=left;overflow=fill;fontSize=12;fontFamily=Helvetica;html=1;whiteSpace=wrap;" vertex="1" parent="1">
          <mxGeometry x="-242" y="-1941.26" width="200" height="150" as="geometry" />
        </mxCell>
        <mxCell id="Ji6EK6EwQxz0IhGoD4ME-37" value="" style="endArrow=none;endFill=0;endSize=24;html=1;rounded=0;startArrow=none;startFill=0;" edge="1" parent="1" source="Ji6EK6EwQxz0IhGoD4ME-2" target="Ji6EK6EwQxz0IhGoD4ME-1">
          <mxGeometry width="160" relative="1" as="geometry">
            <mxPoint x="-28" y="-2023.633063291139" as="sourcePoint" />
            <mxPoint x="398.3599041923476" y="-2112.5" as="targetPoint" />
          </mxGeometry>
        </mxCell>
        <mxCell id="Ji6EK6EwQxz0IhGoD4ME-38" value="&lt;font color=&quot;#000000&quot;&gt;1&lt;/font&gt;" style="text;html=1;strokeColor=none;fillColor=none;align=center;verticalAlign=middle;whiteSpace=wrap;rounded=0;fontSize=14;fontColor=#FF0000;" vertex="1" parent="1">
          <mxGeometry x="271" y="-1890" width="20" height="20" as="geometry" />
        </mxCell>
        <mxCell id="Ji6EK6EwQxz0IhGoD4ME-39" value="" style="rounded=0;orthogonalLoop=1;jettySize=auto;html=1;endArrow=none;endFill=0;exitX=0;exitY=0.5;exitDx=0;exitDy=0;entryX=1;entryY=0.5;entryDx=0;entryDy=0;" edge="1" parent="1" source="Ji6EK6EwQxz0IhGoD4ME-2" target="Ji6EK6EwQxz0IhGoD4ME-36">
          <mxGeometry relative="1" as="geometry">
            <mxPoint x="40" y="-1900" as="sourcePoint" />
            <mxPoint x="-20" y="-1890" as="targetPoint" />
          </mxGeometry>
        </mxCell>
        <mxCell id="Ji6EK6EwQxz0IhGoD4ME-40" value="&lt;font color=&quot;#000000&quot;&gt;1&lt;/font&gt;" style="text;html=1;align=center;verticalAlign=middle;whiteSpace=wrap;rounded=0;fontSize=14;" vertex="1" parent="1">
          <mxGeometry x="-42" y="-1886.76" width="20" height="20" as="geometry" />
        </mxCell>
        <mxCell id="Ji6EK6EwQxz0IhGoD4ME-41" value="&lt;font color=&quot;#000000&quot;&gt;*&lt;/font&gt;" style="text;html=1;strokeColor=none;fillColor=none;align=center;verticalAlign=middle;whiteSpace=wrap;rounded=0;fontSize=14;fontColor=#FF0000;" vertex="1" parent="1">
          <mxGeometry x="56.25" y="-1886.76" width="20" height="20" as="geometry" />
        </mxCell>
        <mxCell id="Ji6EK6EwQxz0IhGoD4ME-42" value="&lt;font color=&quot;#000000&quot;&gt;1&lt;/font&gt;" style="text;html=1;strokeColor=none;fillColor=none;align=center;verticalAlign=middle;whiteSpace=wrap;rounded=0;fontSize=14;fontColor=#FF0000;" vertex="1" parent="1">
          <mxGeometry x="180" y="-2106" width="20" height="20" as="geometry" />
        </mxCell>
        <mxCell id="Ji6EK6EwQxz0IhGoD4ME-43" value="&lt;font color=&quot;#000000&quot;&gt;1&lt;/font&gt;" style="text;html=1;strokeColor=none;fillColor=none;align=center;verticalAlign=middle;whiteSpace=wrap;rounded=0;fontSize=14;fontColor=#FF0000;" vertex="1" parent="1">
          <mxGeometry x="180" y="-1996.7600000000002" width="20" height="20" as="geometry" />
        </mxCell>
        <mxCell id="Ji6EK6EwQxz0IhGoD4ME-44" value="&lt;p style=&quot;margin:0px;margin-top:4px;text-align:center;&quot;&gt;&lt;i&gt;Промокод&lt;/i&gt;&lt;/p&gt;&lt;hr size=&quot;1&quot;&gt;&lt;p style=&quot;margin:0px;margin-left:4px;&quot;&gt;+ ID&lt;/p&gt;&lt;p style=&quot;margin:0px;margin-left:4px;&quot;&gt;+ ID.Гостя&lt;/p&gt;&lt;p style=&quot;margin:0px;margin-left:4px;&quot;&gt;+ Код&lt;/p&gt;&lt;p style=&quot;margin:0px;margin-left:4px;&quot;&gt;+ Тип скидки&lt;/p&gt;&lt;p style=&quot;margin:0px;margin-left:4px;&quot;&gt;+ Величина скидки&lt;/p&gt;&lt;p style=&quot;margin:0px;margin-left:4px;&quot;&gt;+ Дата начала действия&lt;/p&gt;&lt;p style=&quot;margin:0px;margin-left:4px;&quot;&gt;+&amp;nbsp;Дата окончания действия&lt;/p&gt;&lt;p style=&quot;margin:0px;margin-left:4px;&quot;&gt;+&amp;nbsp;Дата использования&lt;/p&gt;&lt;hr size=&quot;1&quot;&gt;&lt;p style=&quot;margin:0px;margin-left:4px;&quot;&gt;&lt;/p&gt;&amp;nbsp;+ Создать_Промокод()&lt;div&gt;&amp;nbsp;+ Создать_Промокод()&lt;br style=&quot;border-color: var(--border-color);&quot;&gt;&amp;nbsp;+ Удалить_Промокод()&lt;/div&gt;" style="verticalAlign=top;align=left;overflow=fill;fontSize=12;fontFamily=Helvetica;html=1;whiteSpace=wrap;" vertex="1" parent="1">
          <mxGeometry x="84.25" y="-2580" width="170" height="210" as="geometry" />
        </mxCell>
        <mxCell id="Ji6EK6EwQxz0IhGoD4ME-45" value="" style="rounded=0;orthogonalLoop=1;jettySize=auto;html=1;endArrow=none;endFill=0;entryX=0.5;entryY=0;entryDx=0;entryDy=0;exitX=0.5;exitY=1;exitDx=0;exitDy=0;" edge="1" parent="1" source="Ji6EK6EwQxz0IhGoD4ME-44" target="Ji6EK6EwQxz0IhGoD4ME-1">
          <mxGeometry relative="1" as="geometry">
            <mxPoint x="94" y="-2187" as="targetPoint" />
            <mxPoint x="-32" y="-2187" as="sourcePoint" />
            <Array as="points" />
          </mxGeometry>
        </mxCell>
        <mxCell id="Ji6EK6EwQxz0IhGoD4ME-46" value="&lt;font color=&quot;#000000&quot;&gt;*&lt;/font&gt;" style="text;html=1;strokeColor=none;fillColor=none;align=center;verticalAlign=middle;whiteSpace=wrap;rounded=0;fontSize=14;fontColor=#FF0000;" vertex="1" parent="1">
          <mxGeometry x="171" y="-2370" width="20" height="20" as="geometry" />
        </mxCell>
        <mxCell id="Ji6EK6EwQxz0IhGoD4ME-47" value="&lt;font color=&quot;#000000&quot;&gt;*&lt;/font&gt;" style="text;html=1;strokeColor=none;fillColor=none;align=center;verticalAlign=middle;whiteSpace=wrap;rounded=0;fontSize=14;fontColor=#FF0000;" vertex="1" parent="1">
          <mxGeometry x="171" y="-2308" width="20" height="20" as="geometry" />
        </mxCell>
      </root>
    </mxGraphModel>
  </diagram>
</mxfile>
